<svg xmlns="http://www.w3.org/2000/svg" xmlns:xlink="http://www.w3.org/1999/xlink" width="12" height="15.009" version="1.1" viewBox="0 0 3.175 3.971"><defs><linearGradient id="gradient"><stop offset="0" stop-color="#fff" stop-opacity="0"/><stop offset=".5" stop-color="#fff"/></linearGradient></defs><title>monofile</title><path fill="#fff" d="m0 3.442"/><path fill="url(#gradient)" d="m0 3.442v.52917h3.175v-.52917z"/><path fill="#fff" d="m1.3219 0-0.56845 0.34727v0.53228l0.5054-0.30231h0.013436v1.6464l-0.55605-0.55605c-0.04961-0.0496-0.11679-0.077516-0.18707-0.077516s-0.13746 0.027916-0.18707 0.077516c-0.10335 0.10336-0.10335 0.27079 0 0.37414l1.0584 1.0578c0.10335 0.10335 0.27078 0.10335 0.37414 0l1.0584-1.0578c0.10335-0.10335 0.10335-0.27078 0-0.37414-0.10335-0.10335-0.27078-0.10335-0.37414 0l-0.55967 0.55967v-2.2273h-0.57724z"/></svg>